<svg xmlns="http://www.w3.org/2000/svg" width="1280" height="420" viewBox="0 0 1280 420" font-family="ui-sans-serif,-apple-system,Segoe UI,Roboto,Helvetica,Arial,sans-serif">
  <defs>
    <linearGradient id="bg" x1="0" y1="0" x2="1" y2="1">
      <stop offset="0" stop-color="#0b1220"/>
      <stop offset="1" stop-color="#111a2e"/>
    </linearGradient>
    <radialGradient id="glow" cx="0.78" cy="0.4" r="0.5">
      <stop offset="0" stop-color="#14b8a6" stop-opacity="0.28"/>
      <stop offset="1" stop-color="#14b8a6" stop-opacity="0"/>
    </radialGradient>
    <linearGradient id="edge" x1="0" y1="0" x2="1" y2="0">
      <stop offset="0" stop-color="#2dd4bf"/>
      <stop offset="1" stop-color="#f59e0b"/>
    </linearGradient>
  </defs>

  <rect width="1280" height="420" fill="url(#bg)"/>
  <rect width="1280" height="420" fill="url(#glow)"/>

  <!-- code-map / graph motif on the right -->
  <g stroke="url(#edge)" stroke-width="2" opacity="0.55">
    <line x1="900" y1="130" x2="1010" y2="90"/>
    <line x1="900" y1="130" x2="1000" y2="210"/>
    <line x1="1000" y1="210" x2="1110" y2="160"/>
    <line x1="1000" y1="210" x2="1050" y2="320"/>
    <line x1="1010" y1="90" x2="1130" y2="120"/>
    <line x1="1110" y1="160" x2="1180" y2="250"/>
    <line x1="1050" y1="320" x2="1160" y2="330"/>
    <line x1="900" y1="130" x2="820" y2="240"/>
    <line x1="820" y1="240" x2="1000" y2="210"/>
  </g>
  <g>
    <circle cx="900" cy="130" r="12" fill="#2dd4bf"/>
    <circle cx="1010" cy="90" r="8" fill="#7dd3fc"/>
    <circle cx="1000" cy="210" r="14" fill="#f59e0b"/>
    <circle cx="1110" cy="160" r="8" fill="#7dd3fc"/>
    <circle cx="1130" cy="120" r="6" fill="#94a3b8"/>
    <circle cx="1180" cy="250" r="9" fill="#2dd4bf"/>
    <circle cx="1050" cy="320" r="10" fill="#7dd3fc"/>
    <circle cx="1160" cy="330" r="6" fill="#94a3b8"/>
    <circle cx="820" cy="240" r="9" fill="#f59e0b"/>
  </g>

  <!-- wordmark -->
  <text x="90" y="180" font-size="76" font-weight="800" fill="#f8fafc" letter-spacing="-2">awesome<tspan fill="#2dd4bf">-</tspan>harness</text>
  <text x="94" y="232" font-size="27" font-weight="500" fill="#9fb3c8">Memory · token savings · anti-drift · a code-map RAG</text>
  <text x="94" y="270" font-size="27" font-weight="500" fill="#9fb3c8">for Claude Code — wired in one command.</text>

  <!-- brackets accent -->
  <text x="90" y="350" font-size="40" font-weight="700" fill="#1f2b44">{ </text>
  <text x="120" y="350" font-size="22" font-weight="600" fill="#64748b">./install.sh</text>
  <text x="290" y="350" font-size="40" font-weight="700" fill="#1f2b44"> }</text>
</svg>
